<?xml version="1.0" encoding="UTF-8" standalone="no"?>
<svg
   xmlns:dc="http://purl.org/dc/elements/1.1/"
   xmlns:cc="http://creativecommons.org/ns#"
   xmlns:rdf="http://www.w3.org/1999/02/22-rdf-syntax-ns#"
   xmlns:svg="http://www.w3.org/2000/svg"
   xmlns="http://www.w3.org/2000/svg"
   xmlns:sodipodi="http://sodipodi.sourceforge.net/DTD/sodipodi-0.dtd"
   xmlns:inkscape="http://www.inkscape.org/namespaces/inkscape"
   width="60"
   height="60"
   viewBox="0 0 15.875 15.875"
   version="1.1"
   id="svg133"
   inkscape:version="1.0 (4035a4f, 2020-05-01)"
   sodipodi:docname="facebook.svg">
  <defs
     id="defs127" />
  <sodipodi:namedview
     showguides="false"
     id="base"
     pagecolor="#ffffff"
     bordercolor="#666666"
     borderopacity="1.0"
     inkscape:pageopacity="0.0"
     inkscape:pageshadow="2"
     inkscape:zoom="6.7638246"
     inkscape:cx="16.936948"
     inkscape:cy="44.491465"
     inkscape:document-units="mm"
     inkscape:current-layer="layer1"
     inkscape:document-rotation="0"
     showgrid="false"
     units="px"
     inkscape:window-width="910"
     inkscape:window-height="985"
     inkscape:window-x="30"
     inkscape:window-y="59"
     inkscape:window-maximized="0" />
  <metadata
     id="metadata130">
    <rdf:RDF>
      <cc:Work
         rdf:about="">
        <dc:format>image/svg+xml</dc:format>
        <dc:type
           rdf:resource="http://purl.org/dc/dcmitype/StillImage" />
        <dc:title />
      </cc:Work>
    </rdf:RDF>
  </metadata>
  <g
     inkscape:label="Layer 1"
     inkscape:groupmode="layer"
     id="layer1">
    <path
       id="path46"
       d="M 7.9267171,4.2512863 C 7.81441,4.2731297 7.6947387,4.2722005 7.5806914,4.2833031 7.3061147,4.3099496 7.0104535,4.3979138 6.7540388,4.501189 5.7600357,4.9015508 5.0310711,5.6955768 4.6457778,6.6863576 4.4999612,7.0612762 4.4471228,7.4794749 4.4471228,7.8782669 c 0,1.2681512 0.6180464,2.5014121 1.7301818,3.1656211 0.5278722,0.315243 1.0847351,0.46644 1.6917459,0.525454 0.2636597,0.02565 0.5457552,0.0252 0.8074217,-0.02561 0.5302841,-0.103118 1.0292956,-0.276082 1.4802758,-0.576736 0.917573,-0.61171 1.490124,-1.6190878 1.595626,-2.7042312 0.01875,-0.1928551 0.03832,-0.4004179 0.01925,-0.595959 C 11.718112,7.1160874 11.564696,6.5977791 11.307056,6.1096389 10.827356,5.2007649 9.8814268,4.5415509 8.8879907,4.334582 8.699323,4.2953351 8.5207767,4.2826624 8.3304875,4.2641082 8.1993003,4.2513532 8.059567,4.2254301 7.9267639,4.2513019 m 1.2688068,1.3393005 v 0.5767291 c 0,0.055291 0.023599,0.1813658 -0.00961,0.2274808 -0.035784,0.049732 -0.1169906,0.0078 -0.163405,0.00257 -0.08389,-0.00815 -0.1680534,0.00312 -0.2499136,0.012806 -0.06246,0.00691 -0.1305765,-0.00857 -0.1922453,0.012758 -0.072305,0.025096 -0.1083052,0.094207 -0.1153489,0.1666068 -0.016988,0.1756542 0,0.3616834 0,0.5382929 H 9.1955801 L 9.1186874,7.9160323 H 8.4650517 V 10.280639 H 7.5230555 V 8.5312215 8.1082876 L 7.5006436,7.9384789 7.3692914,7.916067 H 7.0232446 V 7.1278769 h 0.3460468 c 0.041985,0 0.098628,0.010223 0.1313522,-0.022413 0.029331,-0.029283 0.022412,-0.074361 0.022412,-0.1121421 V 6.7049637 c 0,-0.3014191 -0.026133,-0.6250848 0.1954534,-0.8650985 C 8.0600775,5.4698314 8.7444453,5.5899467 9.1955802,5.5899467 Z"
       style="fill:#cccccc;stroke:none;stroke-width:0.0192243" />
  </g>
</svg>
