<?xml version="1.0" encoding="UTF-8" standalone="no"?>
<svg
   xmlns:dc="http://purl.org/dc/elements/1.1/"
   xmlns:cc="http://creativecommons.org/ns#"
   xmlns:rdf="http://www.w3.org/1999/02/22-rdf-syntax-ns#"
   xmlns:svg="http://www.w3.org/2000/svg"
   xmlns="http://www.w3.org/2000/svg"
   xmlns:sodipodi="http://sodipodi.sourceforge.net/DTD/sodipodi-0.dtd"
   xmlns:inkscape="http://www.inkscape.org/namespaces/inkscape"
   width="60"
   height="60"
   viewBox="0 0 15.875 15.875"
   version="1.1"
   id="svg230"
   inkscape:version="1.0 (4035a4f, 2020-05-01)"
   sodipodi:docname="instagram.svg">
  <defs
     id="defs224" />
  <sodipodi:namedview
     id="base"
     pagecolor="#ffffff"
     bordercolor="#666666"
     borderopacity="1.0"
     inkscape:pageopacity="0.0"
     inkscape:pageshadow="2"
     inkscape:zoom="4.9979831"
     inkscape:cx="10.624404"
     inkscape:cy="37.868709"
     inkscape:document-units="mm"
     inkscape:current-layer="layer1"
     inkscape:document-rotation="0"
     showgrid="false"
     units="px"
     inkscape:window-width="914"
     inkscape:window-height="985"
     inkscape:window-x="30"
     inkscape:window-y="59"
     inkscape:window-maximized="0" />
  <metadata
     id="metadata227">
    <rdf:RDF>
      <cc:Work
         rdf:about="">
        <dc:format>image/svg+xml</dc:format>
        <dc:type
           rdf:resource="http://purl.org/dc/dcmitype/StillImage" />
        <dc:title />
      </cc:Work>
    </rdf:RDF>
  </metadata>
  <g
     inkscape:label="Layer 1"
     inkscape:groupmode="layer"
     id="layer1">
    <path
       inkscape:export-ydpi="97.046089"
       inkscape:export-xdpi="97.046089"
       id="path26"
       d="M 6.6111205,4.8323271 C 6.4684192,4.8732795 6.3081749,4.861579 6.1610778,4.8939922 5.7677757,4.9807121 5.4261859,5.1720268 5.1733635,5.4898274 4.7944026,5.9661967 4.7883546,6.6121948 4.7883546,7.189388 c 0,0.6788233 -0.021738,1.3659873 0.025457,2.0396727 0.029728,0.4246971 0.1195528,0.8661603 0.4202296,1.1894943 0.3959663,0.425819 0.8487368,0.512525 1.397184,0.576926 0.5593654,0.06572 1.1473105,0.02453 1.713143,0.02453 0.4790173,0 0.9737359,0.02442 1.4380874,-0.114018 0.1530293,-0.0456 0.2965914,-0.112549 0.4314344,-0.197279 0.894907,-0.562377 0.771341,-1.7328593 0.771341,-2.6433252 V 7.3201766 c 0,-0.5861424 0.02041,-1.2280532 -0.31842,-1.7387817 C 10.032847,4.6258408 8.7050189,4.8231245 7.7168381,4.8231245 H 6.9716528 c -0.1126353,0 -0.2518421,-0.021901 -0.3605164,0.00925 m 0.2167083,0.5566136 c 0.2760025,-0.032575 0.5717776,-0.00394 0.8497726,-0.00394 0.4532365,0 0.9075011,-0.00712 1.3596546,0.012572 0.4345212,0.019056 0.881074,0.084159 1.1499611,0.4711672 0.278411,0.4007416 0.235829,0.9608105 0.235829,1.4250127 v 0.6928988 c 0,0.7681912 0.191627,1.9494106 -0.6667506,2.3360892 -0.127964,0.05762 -0.2666907,0.0877 -0.4052783,0.104941 -0.3426017,0.04263 -0.6882552,0.02158 -1.0328096,0.03007 -0.5399248,0.01324 -1.0956774,0.04017 -1.6341947,-0.0111 C 6.29143,10.409293 5.9184699,10.375147 5.6420719,10.05226 5.4030534,9.7730108 5.394175,9.442442 5.3613813,9.0978865 5.3289675,8.7576647 5.3504716,8.4070546 5.3504716,8.0650774 c 0,-0.4173201 -0.016526,-0.839139 0.011937,-1.2550597 C 5.3886555,6.426835 5.4032032,6.0692358 5.6719877,5.7646535 5.9791233,5.4166364 6.4105001,5.4379742 6.8278203,5.3887367 M 9.4686751,5.9009828 C 9.0039249,5.9886669 9.1333909,6.7134472 9.5994134,6.6358034 10.082904,6.5552584 9.9485749,5.8104523 9.4686751,5.9009828 m -1.660342,0.430862 C 7.3136299,6.3968312 6.8763315,6.5802874 6.5799319,7.0061222 5.8099062,8.1124092 6.7439792,9.6638538 8.0828809,9.4994264 8.868118,9.4029819 9.4813711,8.714158 9.4813711,7.9212686 c 0,-0.846365 -0.7819335,-1.7064231 -1.673038,-1.5894238 m -0.039212,0.5603535 c 0.1293246,-0.015812 0.2672346,-0.00394 0.392211,0.031702 C 9.0178547,7.1670545 9.181418,8.3218518 8.4358708,8.8011544 8.3111084,8.8813589 8.1643592,8.9312369 8.0175232,8.9503145 7.8925784,8.9665201 7.7606212,8.9550653 7.6383882,8.9277045 6.7431647,8.7295744 6.6007955,7.5150955 7.3376956,7.041351 7.4656605,6.95909 7.618568,6.9106507 7.7691199,6.8921509 Z"
       style="fill:#e6e6e6;stroke:none;stroke-width:0.0130733" />
  </g>
</svg>
