<?xml version="1.0" encoding="UTF-8" standalone="no"?>
<svg
   xmlns:dc="http://purl.org/dc/elements/1.1/"
   xmlns:cc="http://creativecommons.org/ns#"
   xmlns:rdf="http://www.w3.org/1999/02/22-rdf-syntax-ns#"
   xmlns:svg="http://www.w3.org/2000/svg"
   xmlns="http://www.w3.org/2000/svg"
   xmlns:sodipodi="http://sodipodi.sourceforge.net/DTD/sodipodi-0.dtd"
   xmlns:inkscape="http://www.inkscape.org/namespaces/inkscape"
   width="60"
   height="60"
   viewBox="0 0 15.875 15.875"
   version="1.1"
   id="svg174"
   inkscape:version="1.0 (4035a4f, 2020-05-01)"
   sodipodi:docname="twitter.svg">
  <defs
     id="defs168" />
  <sodipodi:namedview
     id="base"
     pagecolor="#ffffff"
     bordercolor="#666666"
     borderopacity="1.0"
     inkscape:pageopacity="0.0"
     inkscape:pageshadow="2"
     inkscape:zoom="4.3543663"
     inkscape:cx="13.285084"
     inkscape:cy="32.074624"
     inkscape:document-units="mm"
     inkscape:current-layer="layer1"
     inkscape:document-rotation="0"
     showgrid="false"
     units="px"
     inkscape:window-width="910"
     inkscape:window-height="474"
     inkscape:window-x="975"
     inkscape:window-y="59"
     inkscape:window-maximized="0" />
  <metadata
     id="metadata171">
    <rdf:RDF>
      <cc:Work
         rdf:about="">
        <dc:format>image/svg+xml</dc:format>
        <dc:type
           rdf:resource="http://purl.org/dc/dcmitype/StillImage" />
        <dc:title />
      </cc:Work>
    </rdf:RDF>
  </metadata>
  <g
     inkscape:label="Layer 1"
     inkscape:groupmode="layer"
     id="layer1">
    <path
       id="path76"
       d="m 7.9464758,6.6751031 c -0.2697299,0 -0.542631,-0.054697 -0.805546,-0.114303 C 6.4917017,6.4136481 5.8771383,6.1124349 5.3522336,5.6960109 5.1724929,5.5534012 4.991497,5.3987634 4.8384783,5.2258747 4.7575464,5.1344411 4.6815742,5.035822 4.5974441,4.9476751 h -0.00636 c -0.025375,0.032742 -0.039997,0.072993 -0.058135,0.1099813 -0.047042,0.095989 -0.083215,0.1993074 -0.1088787,0.3040762 -0.1156142,0.4717304 -0.02912,0.9881433 0.2515933,1.3845481 0.067688,0.095578 0.1465433,0.186032 0.2325678,0.265247 0.058085,0.05349 0.1267241,0.095052 0.1839563,0.148806 -0.1812956,0 -0.3771943,-0.049468 -0.5454991,-0.1186079 -0.063024,-0.025874 -0.120874,-0.064719 -0.1839343,-0.088419 0,0.2110895 0.027841,0.416212 0.103588,0.6146286 0.1961983,0.5145549 0.6523425,0.9276027 1.1903481,1.0286945 v 0.00651 c -0.1412918,0.026637 -0.2807338,0.058219 -0.424964,0.058219 -0.1002797,0 -0.1988855,-0.024347 -0.2981123,-0.032406 0.00396,0.04888 0.030795,0.097342 0.048631,0.1423345 0.045915,0.1162903 0.1094797,0.2286939 0.1839318,0.3299639 0.3001431,0.4081928 0.7784851,0.67933 1.2833725,0.67933 v 0.0067 c -0.034892,0.01025 -0.066057,0.043512 -0.095143,0.065776 -0.054911,0.041969 -0.1125748,0.083109 -0.1712562,0.1196877 -0.1654943,0.103158 -0.3343892,0.198035 -0.5137771,0.271731 -0.1891282,0.07771 -0.3844453,0.136688 -0.5835423,0.178994 -0.064546,0.01371 -0.1310896,0.03014 -0.1966255,0.03673 -0.1140638,0.01131 -0.228396,0.02101 -0.3425212,0.03238 -0.1655823,0.01638 -0.3308076,-0.01937 -0.4947471,-0.01937 v 0.0067 c 0.065766,0.0335 0.1251782,0.08029 0.1902868,0.115354 0.1139976,0.0614 0.2263211,0.125204 0.3425299,0.18116 0.3768684,0.18154 0.7781988,0.293277 1.1861104,0.374219 0.1438206,0.02849 0.2922007,0.03941 0.4376556,0.05391 0.025064,0.0029 0.050979,-0.0029 0.076117,0 0.1658597,0.01639 0.3479086,0.01639 0.5137726,0 0.054747,-0.0052 0.1101959,-0.001 0.1649085,-0.0067 0.1229971,-0.01219 0.2450914,-0.03134 0.3678904,-0.04525 0.2304441,-0.02615 0.4562103,-0.100867 0.6786898,-0.163881 0.2221713,-0.06294 0.4372512,-0.16479 0.6406298,-0.268504 C 9.285175,10.396532 9.83474,9.9096064 10.251022,9.3216479 10.35917,9.1689313 10.466231,9.0092642 10.552309,8.8428858 c 0.222957,-0.4307937 0.399724,-0.878731 0.504258,-1.3586555 0.02358,-0.1085563 0.04929,-0.2195684 0.06134,-0.3299567 0.02165,-0.1986198 0.04436,-0.3938767 0.04436,-0.595216 V 6.3647767 c 0,-0.023284 -0.0076,-0.063179 0.0038,-0.084105 0.01286,-0.025151 0.05132,-0.043242 0.07294,-0.060379 0.06695,-0.053175 0.133648,-0.1081211 0.196553,-0.1660577 0.141684,-0.1304877 0.27191,-0.2734663 0.389002,-0.4270057 0.04823,-0.0632 0.114861,-0.1322778 0.143795,-0.2070352 l -0.393254,0.146656 -0.532789,0.1121357 v -0.00651 c 0.09856,-0.03711 0.18959,-0.1298219 0.266395,-0.2005627 0.204759,-0.1885135 0.361167,-0.4375414 0.444001,-0.7052103 -0.04331,0.00933 -0.08162,0.042688 -0.120504,0.063619 -0.05826,0.031302 -0.118047,0.0619 -0.177606,0.090582 -0.151605,0.073035 -0.313522,0.1319723 -0.475717,0.1779185 -0.05692,0.016074 -0.113786,0.031388 -0.171253,0.045291 -0.02013,0.00486 -0.05605,0.020531 -0.07611,0.016119 -0.0282,-0.006 -0.05418,-0.049893 -0.07613,-0.067947 C 10.58533,5.0348746 10.520948,4.972935 10.445848,4.9218657 10.237212,4.7799608 9.9873923,4.6751071 9.735489,4.6501262 9.5309344,4.6297654 9.3198872,4.6344746 9.120234,4.6910989 8.5525465,4.8519502 8.0785433,5.3167423 7.9489118,5.9117292 c -0.036121,0.1657627 -0.056436,0.3468331 -0.040175,0.5175833 0.00793,0.082719 0.023212,0.1638546 0.038064,0.2458557 z"
       style="fill:#e6e6e6;stroke:none;stroke-width:0.00640602" />
  </g>
</svg>
